<svg width="152" height="33" viewBox="0 0 152 33" fill="none" xmlns="http://www.w3.org/2000/svg">
  <path d="M38.4388 0.903605L26.8132 31.7192H21.02L18.3974 12.2612C18.3452 11.9369 18.293 11.5914 18.2408 11.2248C18.2016 10.8582 18.1625 10.4705 18.1234 10.0616C17.9798 10.4705 17.8428 10.8582 17.7124 11.2248C17.5949 11.5914 17.471 11.9369 17.3405 12.2612L10.373 31.7192H4.61891L0 0.903605H5.01035C5.55835 0.903605 5.99545 1.0446 6.32165 1.32661C6.66089 1.5945 6.86313 1.95406 6.92837 2.40526L8.92468 19.008C8.96382 19.5297 9.00297 20.0867 9.04211 20.6789C9.08125 21.2711 9.1204 21.8915 9.15954 22.5401C9.35526 21.8915 9.55097 21.2711 9.74669 20.6789C9.95545 20.0726 10.1642 19.5156 10.373 19.008L16.2053 2.40526C16.2836 2.22196 16.3945 2.03866 16.5381 1.85536C16.6816 1.67205 16.8512 1.5099 17.0469 1.3689C17.2426 1.2279 17.4579 1.1151 17.6928 1.0305C17.9276 0.945904 18.1756 0.903605 18.4365 0.903605H19.924C20.472 0.903605 20.9025 1.0446 21.2157 1.32661C21.5419 1.60861 21.7637 1.96816 21.8811 2.40526L24.0732 19.008C24.1514 19.5015 24.2232 20.0444 24.2884 20.6366C24.3537 21.2147 24.4124 21.821 24.4646 22.4555C24.6473 21.821 24.8234 21.2147 24.993 20.6366C25.1626 20.0585 25.3257 19.5156 25.4823 19.008L31.119 2.40526C31.1711 2.20786 31.269 2.0175 31.4125 1.8342C31.5691 1.6509 31.7452 1.4958 31.941 1.3689C32.1497 1.2279 32.3781 1.1151 32.626 1.0305C32.8739 0.945904 33.1283 0.903605 33.3893 0.903605H38.4388Z" fill="#3A3A3A"/>
  <path d="M45.4014 13.9109C44.3967 13.9109 43.516 14.348 42.7592 15.2222C42.0024 16.0823 41.4414 17.2667 41.076 18.7754C42.3286 18.5639 43.3463 18.3383 44.1292 18.0986C44.9121 17.8589 45.5188 17.6051 45.9494 17.3372C46.38 17.0552 46.667 16.7591 46.8105 16.4489C46.9671 16.1387 47.0454 15.8003 47.0454 15.4337C47.0454 15.0671 46.9149 14.7216 46.654 14.3973C46.393 14.073 45.9755 13.9109 45.4014 13.9109ZM52.0949 27.6584C51.3773 28.4198 50.6727 29.0825 49.9811 29.6465C49.3027 30.1964 48.5981 30.6546 47.8674 31.0212C47.1498 31.3737 46.38 31.6346 45.5579 31.8038C44.749 31.973 43.8617 32.0576 42.8962 32.0576C41.6958 32.0576 40.5933 31.839 39.5886 31.4019C38.5839 30.9507 37.7162 30.3233 36.9856 29.5196C36.2679 28.7018 35.7069 27.7218 35.3024 26.5797C34.911 25.4376 34.7152 24.1686 34.7152 22.7727C34.7152 21.6024 34.8327 20.4603 35.0675 19.3464C35.3154 18.2325 35.6612 17.1891 36.1048 16.2162C36.5615 15.2292 37.116 14.3268 37.7684 13.509C38.4208 12.6771 39.1515 11.9651 39.9604 11.3729C40.7825 10.7807 41.6762 10.3224 42.6418 9.99812C43.6203 9.65972 44.6576 9.49052 45.7537 9.49052C46.8366 9.49052 47.7956 9.65972 48.6307 9.99812C49.4788 10.3365 50.1899 10.7807 50.764 11.3306C51.3381 11.8664 51.7752 12.4727 52.0753 13.1495C52.3754 13.8263 52.5255 14.5031 52.5255 15.1799C52.5255 16.181 52.3428 17.0975 51.9775 17.9294C51.6121 18.7472 50.9728 19.4804 50.0594 20.129C49.1591 20.7776 47.9392 21.3275 46.3995 21.7787C44.8729 22.2299 42.9484 22.5824 40.6259 22.8362C40.652 24.3308 40.9521 25.4235 41.5262 26.1144C42.1133 26.8053 42.9745 27.1508 44.1096 27.1508C44.6446 27.1508 45.1078 27.1014 45.4992 27.0027C45.8907 26.904 46.2299 26.7771 46.517 26.622C46.8171 26.4669 47.0845 26.3048 47.3194 26.1356C47.5543 25.9664 47.7761 25.8042 47.9848 25.6491C48.2066 25.494 48.435 25.3671 48.6698 25.2684C48.9047 25.1697 49.1722 25.1204 49.4723 25.1204C49.668 25.1204 49.8572 25.1768 50.0399 25.2896C50.2225 25.3883 50.3856 25.5222 50.5291 25.6914L52.0949 27.6584Z" fill="#3A3A3A"/>
  <path d="M60.4575 26.3048C60.8359 26.6432 61.2599 26.8829 61.7296 27.0239C62.1994 27.1649 62.643 27.2354 63.0605 27.2354C63.7651 27.2354 64.411 26.9816 64.9981 26.474C65.5983 25.9664 66.1137 25.3037 66.5443 24.4859C66.9749 23.654 67.3076 22.7093 67.5424 21.6518C67.7903 20.5943 67.9143 19.5156 67.9143 18.4158C67.9143 17.0199 67.7251 16.0047 67.3467 15.3702C66.9683 14.7357 66.466 14.4185 65.8397 14.4185C65.4091 14.4185 64.959 14.6018 64.4893 14.9684C64.0326 15.3209 63.589 15.8073 63.1584 16.4277C62.7278 17.034 62.3233 17.7531 61.9449 18.585C61.5796 19.4028 61.273 20.277 61.0251 21.2076L60.4575 26.3048ZM61.9449 13.2341C62.8452 12.0497 63.8238 11.1261 64.8807 10.4634C65.9506 9.78662 67.0792 9.44821 68.2666 9.44821C69.1016 9.44821 69.8649 9.61037 70.5565 9.93467C71.248 10.2449 71.8417 10.7384 72.3375 11.4152C72.8464 12.092 73.2378 12.9591 73.5118 14.0166C73.7988 15.06 73.9424 16.3079 73.9424 17.7602C73.9424 19.6778 73.6684 21.5037 73.1204 23.238C72.5854 24.9582 71.8612 26.474 70.9479 27.7853C70.0346 29.0966 68.9777 30.14 67.7773 30.9155C66.59 31.6769 65.3439 32.0576 64.0391 32.0576C63.0344 32.0576 62.1537 31.8531 61.3969 31.4442C60.6402 31.0212 59.9878 30.4713 59.4398 29.7945L59.381 30.006C59.1984 30.5982 58.9635 31.0353 58.6765 31.3173C58.3894 31.5852 57.9197 31.7192 57.2673 31.7192H53.9401L57.5022 0.0576019H63.452L61.9449 13.2341Z" fill="#3A3A3A"/>
  <path d="M88.3068 26.3894C89.0244 26.3894 89.6442 26.333 90.1661 26.2202C90.701 26.0933 91.1577 25.9382 91.5361 25.7549C91.9145 25.5716 92.2342 25.3742 92.4951 25.1627C92.7561 24.9371 92.9909 24.7326 93.1997 24.5493C93.4085 24.366 93.6042 24.218 93.7868 24.1052C93.9695 23.9783 94.1652 23.9148 94.374 23.9148C94.5828 23.9148 94.7524 23.9571 94.8829 24.0417C95.0264 24.1122 95.1308 24.1968 95.196 24.2955L97.4272 27.1931C96.1876 28.7864 94.7132 29.999 93.004 30.8309C91.3078 31.6487 89.3767 32.0576 87.2108 32.0576C85.4102 32.0576 83.8118 31.7192 82.4157 31.0424C81.0326 30.3515 79.8649 29.4068 78.9124 28.2083C77.9599 27.0098 77.2357 25.5927 76.7399 23.9571C76.2572 22.3074 76.0158 20.5308 76.0158 18.6273C76.0158 16.8648 76.1984 15.194 76.5638 13.6148C76.9291 12.0356 77.4445 10.5762 78.1099 9.23671C78.7754 7.89721 79.5713 6.69166 80.4977 5.62006C81.4371 4.54846 82.4744 3.639 83.6096 2.8917C84.7447 2.1444 85.9647 1.57335 87.2695 1.17855C88.5743 0.769651 89.9377 0.565201 91.36 0.565201C92.4299 0.565201 93.4019 0.678001 94.2761 0.903602C95.1634 1.1151 95.9593 1.41825 96.6639 1.81305C97.3815 2.19375 98.0209 2.652 98.5819 3.1878C99.143 3.7236 99.6323 4.3158 100.05 4.96441L97.8186 7.75621C97.662 7.95361 97.4794 8.12986 97.2706 8.28496C97.0618 8.44006 96.7878 8.51761 96.4486 8.51761C96.2268 8.51761 96.0245 8.46121 95.8419 8.34841C95.6592 8.23561 95.47 8.10166 95.2743 7.94656C95.0916 7.77736 94.8829 7.59406 94.648 7.39666C94.4131 7.19926 94.1326 7.02301 93.8064 6.86791C93.4802 6.69871 93.0888 6.55771 92.6321 6.44491C92.1885 6.33211 91.6601 6.27571 91.0468 6.27571C89.8464 6.27571 88.7243 6.55066 87.6805 7.10056C86.6497 7.65046 85.7494 8.44006 84.9796 9.46936C84.2228 10.4846 83.6292 11.7254 83.1986 13.1918C82.768 14.6441 82.5527 16.2726 82.5527 18.0774C82.5527 19.3887 82.6962 20.559 82.9833 21.5883C83.2834 22.6176 83.6879 23.4918 84.1967 24.2109C84.7056 24.9159 85.3123 25.4588 86.0169 25.8395C86.7215 26.2061 87.4848 26.3894 88.3068 26.3894Z" fill="url(#paint0_linear_7_121)"/>
  <path d="M115.382 19.9809L113.992 11.1825C113.888 10.6326 113.77 9.98402 113.64 9.23671C113.522 8.47531 113.405 7.65751 113.288 6.78331C112.974 7.67161 112.661 8.49646 112.348 9.25786C112.048 10.0052 111.787 10.6608 111.565 11.2248L108.218 19.9809H115.382ZM123.856 31.7192H118.924C118.376 31.7192 117.946 31.5852 117.632 31.3173C117.332 31.0353 117.124 30.6687 117.006 30.2175L116.125 24.6762H106.437L104.324 30.2175C104.141 30.5982 103.847 30.9437 103.443 31.2539C103.052 31.5641 102.601 31.7192 102.093 31.7192H97.0822L110.704 0.903602H117.241L123.856 31.7192Z" fill="url(#paint1_linear_7_121)"/>
  <path d="M152 14.3339C152 16.0118 151.824 17.6051 151.472 19.1138C151.119 20.6084 150.617 22.0043 149.965 23.3015C149.312 24.5846 148.516 25.7478 147.577 26.7912C146.65 27.8205 145.607 28.7018 144.445 29.435C143.297 30.1682 142.038 30.7322 140.668 31.127C139.311 31.5218 137.882 31.7192 136.382 31.7192H126.126L129.649 0.903602H139.905C141.771 0.903602 143.447 1.24905 144.935 1.93995C146.435 2.61675 147.707 3.55441 148.751 4.75291C149.795 5.95141 150.597 7.36846 151.158 9.00406C151.719 10.6397 152 12.4163 152 14.3339ZM145.463 14.5031C145.463 13.2482 145.326 12.1131 145.052 11.0979C144.791 10.0686 144.393 9.19441 143.858 8.47531C143.336 7.75621 142.69 7.19926 141.921 6.80446C141.151 6.40966 140.27 6.21226 139.278 6.21226H135.442L133.172 26.4105H137.008C138.313 26.4105 139.487 26.1356 140.531 25.5857C141.575 25.0217 142.462 24.225 143.193 23.1957C143.923 22.1664 144.484 20.9186 144.876 19.4522C145.267 17.9858 145.463 16.3361 145.463 14.5031Z" fill="url(#paint2_linear_7_121)"/>
  <defs>
    <linearGradient id="paint0_linear_7_121" x1="76.0158" y1="0.565201" x2="98.2936" y2="54.3167" gradientUnits="userSpaceOnUse">
      <stop stop-color="#39B0D6"/>
      <stop offset="1" stop-color="#3978D6"/>
    </linearGradient>
    <linearGradient id="paint1_linear_7_121" x1="76.0158" y1="0.565201" x2="98.2936" y2="54.3167" gradientUnits="userSpaceOnUse">
      <stop stop-color="#39B0D6"/>
      <stop offset="1" stop-color="#3978D6"/>
    </linearGradient>
    <linearGradient id="paint2_linear_7_121" x1="76.0158" y1="0.565201" x2="98.2936" y2="54.3167" gradientUnits="userSpaceOnUse">
      <stop stop-color="#39B0D6"/>
      <stop offset="1" stop-color="#3978D6"/>
    </linearGradient>
  </defs>
</svg>
